<mxfile host="app.diagrams.net" modified="2023-07-31T11:39:13.629Z" agent="Mozilla/5.0 (Windows NT 10.0; Win64; x64) AppleWebKit/537.36 (KHTML, like Gecko) Chrome/115.0.0.0 Safari/537.36" etag="2lSH0JlWPcZLfmbiQ85Y" version="21.6.6" type="device">
  <diagram name="Page-1" id="H1zNEXIEQOhlbU625Vsc">
    <mxGraphModel dx="1376" dy="768" grid="1" gridSize="10" guides="1" tooltips="1" connect="1" arrows="1" fold="1" page="1" pageScale="1" pageWidth="850" pageHeight="1100" background="#ffffff" math="0" shadow="0">
      <root>
        <mxCell id="0" />
        <mxCell id="1" parent="0" />
        <mxCell id="zGtetLi2h1QtDpKqujPW-1" value="Function: g_cc_ac_get_AC_ON_OFF&#xa;&#xa;&#xa;&#xa;Description:&#xa;    Get the value of AC_ON_OFF, representing the state of the AC module&#xa;&#xa;&#xa;&#xa;Parameters In:&#xa;    None&#xa;&#xa;&#xa;&#xa;Parameters Out:&#xa;    state_ac :bool*&#xa;&#xa;&#xa;&#xa;Return Value:&#xa;    None" style="text;whiteSpace=wrap;" vertex="1" parent="1">
          <mxGeometry x="440" y="10" width="400" height="440" as="geometry" />
        </mxCell>
        <mxCell id="zGtetLi2h1QtDpKqujPW-3" style="edgeStyle=orthogonalEdgeStyle;rounded=0;orthogonalLoop=1;jettySize=auto;html=1;" edge="1" parent="1" source="zGtetLi2h1QtDpKqujPW-2" target="zGtetLi2h1QtDpKqujPW-4">
          <mxGeometry relative="1" as="geometry">
            <mxPoint x="210" y="250" as="targetPoint" />
          </mxGeometry>
        </mxCell>
        <mxCell id="zGtetLi2h1QtDpKqujPW-2" value="" style="ellipse;whiteSpace=wrap;html=1;" vertex="1" parent="1">
          <mxGeometry x="150" y="90" width="120" height="80" as="geometry" />
        </mxCell>
        <mxCell id="zGtetLi2h1QtDpKqujPW-5" style="edgeStyle=orthogonalEdgeStyle;rounded=0;orthogonalLoop=1;jettySize=auto;html=1;" edge="1" parent="1" source="zGtetLi2h1QtDpKqujPW-4" target="zGtetLi2h1QtDpKqujPW-6">
          <mxGeometry relative="1" as="geometry">
            <mxPoint x="210" y="340" as="targetPoint" />
          </mxGeometry>
        </mxCell>
        <mxCell id="zGtetLi2h1QtDpKqujPW-4" value="call&amp;nbsp;g_cc_ac_get_AC_ON_OFF" style="rounded=1;whiteSpace=wrap;html=1;" vertex="1" parent="1">
          <mxGeometry x="115" y="220" width="190" height="60" as="geometry" />
        </mxCell>
        <mxCell id="zGtetLi2h1QtDpKqujPW-7" style="edgeStyle=orthogonalEdgeStyle;rounded=0;orthogonalLoop=1;jettySize=auto;html=1;" edge="1" parent="1" source="zGtetLi2h1QtDpKqujPW-6" target="zGtetLi2h1QtDpKqujPW-8">
          <mxGeometry relative="1" as="geometry">
            <mxPoint x="210" y="460" as="targetPoint" />
          </mxGeometry>
        </mxCell>
        <mxCell id="zGtetLi2h1QtDpKqujPW-6" value="value of state_ac gets assigned with AC_ON_OFF value" style="rounded=1;whiteSpace=wrap;html=1;" vertex="1" parent="1">
          <mxGeometry x="130" y="310" width="160" height="60" as="geometry" />
        </mxCell>
        <mxCell id="zGtetLi2h1QtDpKqujPW-8" value="" style="ellipse;whiteSpace=wrap;html=1;" vertex="1" parent="1">
          <mxGeometry x="150" y="420" width="120" height="80" as="geometry" />
        </mxCell>
      </root>
    </mxGraphModel>
  </diagram>
</mxfile>
